Coordinates
version=1
nRows=4
nColumns=40
inDegrees=yes

Units are S.I. units (second, meters, Newtons, ...)
If the header above contains a line with 'inDegrees', this indicates whether rotational values are in degrees (yes) or radians (no).

endheader
time	pelvis_tilt	pelvis_list	pelvis_rotation	pelvis_tx	pelvis_ty	pelvis_tz	hip_flexion_r	hip_adduction_r	hip_rotation_r	knee_angle_r	knee_angle_r_beta	ankle_angle_r	subtalar_angle_r	mtp_angle_r	hip_flexion_l	hip_adduction_l	hip_rotation_l	knee_angle_l	knee_angle_l_beta	ankle_angle_l	subtalar_angle_l	mtp_angle_l	lumbar_extension	lumbar_bending	lumbar_rotation	arm_flex_r	arm_add_r	arm_rot_r	elbow_flex_r	pro_sup_r	wrist_flex_r	wrist_dev_r	arm_flex_l	arm_add_l	arm_rot_l	elbow_flex_l	pro_sup_l	wrist_flex_l	wrist_dev_l
     13.80000000000000071054	     10.87046348024222197637	     -4.66789375384285243342	   -178.40148793226185830463	      0.29602984594461878576	      0.68504241201208093681	     -0.95884811764025668079	     74.12673263872842710498	    -48.98979467998056946954	     -1.03921582738534246104	     69.03861563081335361858	      1.20495115377651496047	      2.00107434253006877256	      0.00000000000000000000	      0.00000000000000000000	     63.27747192459420944033	    -42.09557366300774816636	    -11.73127505105997769874	     65.70797390892313671884	      1.14682048952523740759	      3.18236763799059829694	      0.00000000000000000000	      0.00000000000000000000	    -61.68396300937552467758	     -1.17751387587960198999	     -3.79808386649766749343	     53.31653795428264430711	     -9.70577192761267326659	     34.85285333689962783410	      7.37191970504263505148	     41.68038800232162088832	      0.00000000000000000000	      0.00000000000000000000	     61.00229430131397379000	    -15.43299331070885749284	     41.22446087584599894171	     18.23065254803364609870	     81.79300073936094861438	      0.00000000000000000000	      0.00000000000000000000
     13.80499999999999971578	     10.81158040660829655621	     -4.67657829629228416479	   -178.43526247879171364730	      0.29604978019023375779	      0.68532882404327544190	     -0.95881607229473153620	     74.02938341423832468990	    -48.96494888922987342994	     -1.05931847452966110268	     68.97133838577332198838	      1.20377694433889548264	      1.97628869708259991000	      0.00000000000000000000	      0.00000000000000000000	     63.15469740115431562799	    -42.13646387783833091589	    -11.83904881832270561404	     65.67710823107471185267	      1.14628178182092255177	      3.17195459088975661999	      0.00000000000000000000	      0.00000000000000000000	    -61.77043501176640916128	     -1.20960267990926295667	     -3.80298229036684443116	     53.29021694239957440686	     -9.73685358899906816532	     35.03685312691257536244	      7.51637728045319875037	     41.47544154808613114938	      0.00000000000000000000	      0.00000000000000000000	     60.98243242899336280516	    -15.51946612001806435899	     41.62543493462713684039	     18.45145061066201108702	     79.23714181276221779626	      0.00000000000000000000	      0.00000000000000000000
     13.81000000000000049738	     10.89218513840187974040	     -4.63608806731169220683	   -178.38104349469369935832	      0.29616910855468370212	      0.68534915478766600394	     -0.95868879531062534127	     74.02893490306487933594	    -48.97545857419610371153	     -1.13760601217176127165	     68.94504692914176757768	      1.20331807185552941419	      2.00534390126864625614	      0.00000000000000000000	      0.00000000000000000000	     63.29974898149561113314	    -42.07256353330097198295	    -11.72362931232062344122	     65.65888989535626762972	      1.14596381187840190563	      3.15703604147807226354	      0.00000000000000000000	      0.00000000000000000000	    -61.70965983855050751572	     -1.14270633593345927181	     -3.84065700343763927194	     53.48020145767819144567	     -9.52069544917466892286	     34.55189399898214475115	      7.18736460528536191816	     41.14701476695265114358	      0.00000000000000000000	      0.00000000000000000000	     60.93409498718121852789	    -16.03363112014291758101	     42.97678274847054069596	     19.08258742990054201982	     80.47608959197474121083	      0.00000000000000000000	      0.00000000000000000000
     13.81499999999999950262	     10.92214640507835454741	     -4.34570095224932817501	   -178.20226100194156515499	      0.29629865371846009214	      0.68536233216361464038	     -0.95823878766472359025	     73.57691884716879826556	    -49.06027023781922480339	     -1.74056576942323504298	     68.87355388309249804024	      1.20207028280968986067	      2.04822879253076273187	      0.00000000000000000000	      0.00000000000000000000	     63.73376427292876655883	    -41.99858814602320222775	    -11.11062609035258219592	     65.67378197277794527054	      1.14622372766187208271	      3.16691853086021657404	      0.00000000000000000000	      0.00000000000000000000	    -61.65571127247689986461	     -0.75783019348780389368	     -3.78175696004173200748	     53.61902162380912528761	     -9.40968206679495011713	     35.13278986858377805902	      6.66516967049276853885	     41.21373869476059326189	      0.00000000000000000000	      0.00000000000000000000	     60.73929632766466113480	    -15.75137364691224917124	     41.70829657123200462365	     18.81584594934818710499	     77.75008829858506942401	      0.00000000000000000000	      0.00000000000000000000
